<?xml version="1.0" encoding="utf-8"?>
<!-- Generator: Adobe Illustrator 24.0.1, SVG Export Plug-In . SVG Version: 6.00 Build 0)  -->
<svg version="1.1" id="Layer_1" xmlns="http://www.w3.org/2000/svg" xmlns:xlink="http://www.w3.org/1999/xlink" x="0px" y="0px"
	 viewBox="0 0 264.6 181.9" style="enable-background:new 0 0 264.6 181.9;" xml:space="preserve">
<style type="text/css">
	.st0{fill:#4E5263;}
</style>
<title>Asset 1</title>
<g id="Layer_2_1_">
	<g id="Layer_1-2">
		<path id="Logo_Solid" class="st0" d="M123,74.7c-2.8,3.2-6.3,5.7-10.3,7.3c-4.1,1.7-8.4,2.5-12.8,2.5c-4,0-7.9-0.6-11.7-2
			c-3.5-1.3-6.6-3.2-9.3-5.8c-2.7-2.5-4.8-5.6-6.2-9c-1.5-3.7-2.3-7.7-2.3-11.7c0-3.7,0.6-7.4,1.9-10.9c1.2-3.4,3.1-6.4,5.5-9.1
			c2.4-2.6,5.4-4.8,8.6-6.3c3.6-1.6,7.4-2.4,11.3-2.3c3.7,0,7.3,0.7,10.7,2.3c3.2,1.4,6,3.5,8.4,6c2.4,2.6,4.3,5.6,5.5,8.8
			c1.3,3.5,2,7.1,2,10.8c0,1.4-0.1,2.8-0.3,4.2h-39c0.2,1.9,0.7,3.7,1.6,5.3c0.8,1.6,2,2.9,3.3,4.1c1.4,1.1,3,2,4.7,2.7
			c1.8,0.7,3.7,1,5.6,1c3,0.1,5.9-0.7,8.5-2.1c2.1-1.1,4-2.5,5.6-4.2L123,74.7z M109,49c-0.2-1.2-0.5-2.4-1.1-3.5
			c-1.2-2.4-3.2-4.3-5.7-5.2c-1.4-0.5-2.8-0.8-4.3-0.8c-3-0.1-5.9,1-8.1,2.9c-2.1,1.7-3.5,4-4,6.7H109z M192.7,74.7
			c-2.8,3.2-6.3,5.7-10.3,7.3c-4.1,1.7-8.4,2.5-12.8,2.5c-4,0-7.9-0.6-11.7-2c-3.5-1.3-6.6-3.2-9.3-5.8c-2.7-2.5-4.8-5.6-6.2-9
			c-1.5-3.7-2.3-7.7-2.3-11.7c0-3.7,0.6-7.4,1.9-10.9c1.2-3.4,3.1-6.4,5.5-9.1c2.4-2.7,5.4-4.8,8.6-6.3c3.6-1.6,7.4-2.4,11.3-2.3
			c3.7,0,7.3,0.7,10.7,2.3c3.2,1.4,6,3.5,8.4,6c2.4,2.6,4.3,5.6,5.5,8.8c1.3,3.4,2,7.1,2,10.8c0,1.4-0.1,2.8-0.4,4.2h-39
			c0.2,1.8,0.7,3.6,1.6,5.3c0.8,1.6,2,2.9,3.3,4.1c1.4,1.1,3,2,4.6,2.7c1.8,0.7,3.7,1,5.6,1c3,0.1,5.9-0.7,8.5-2.1
			c2.1-1.1,4-2.5,5.6-4.2L192.7,74.7z M178.7,49c-0.2-1.2-0.5-2.4-1.1-3.5c-0.6-1.2-1.4-2.2-2.3-3.1c-1-0.9-2.2-1.6-3.4-2.1
			c-1.4-0.5-2.8-0.8-4.3-0.8c-3-0.1-5.9,1-8.1,2.9c-2.1,1.7-3.5,4-4,6.7L178.7,49z M69.9,126.4c0-3.8,0.7-7.5,2.1-11
			c1.3-3.4,3.3-6.4,5.8-9c2.5-2.6,5.5-4.6,8.8-6c7-3,15-3,22,0c3.3,1.4,6.3,3.4,8.8,6c2.5,2.6,4.5,5.6,5.8,9c1.4,3.5,2.1,7.2,2.1,11
			c0,3.8-0.7,7.5-2.1,11c-1.3,3.3-3.3,6.3-5.8,8.9c-2.5,2.6-5.5,4.6-8.8,6c-7,2.9-15,2.9-22,0c-3.3-1.4-6.3-3.4-8.8-6
			c-2.5-2.6-4.5-5.6-5.8-8.9C70.6,133.9,69.9,130.2,69.9,126.4z M83.8,126.4c0,1.9,0.3,3.9,1,5.7c0.6,1.7,1.6,3.3,2.8,4.7
			c1.2,1.4,2.7,2.5,4.3,3.2c3.6,1.6,7.6,1.6,11.2,0c1.7-0.7,3.1-1.8,4.3-3.2c1.2-1.4,2.1-3,2.8-4.7c0.7-1.8,1-3.8,1-5.7
			c0-2-0.3-3.9-1-5.7c-0.6-1.7-1.6-3.3-2.8-4.7c-1.2-1.4-2.7-2.4-4.3-3.2c-3.6-1.6-7.6-1.6-11.2,0c-1.6,0.8-3.1,1.8-4.3,3.2
			c-1.2,1.4-2.2,3-2.8,4.7C84.2,122.5,83.8,124.4,83.8,126.4z M139.8,126.4c0-3.8,0.7-7.5,2.1-11c2.7-6.8,7.9-12.2,14.6-15
			c7-3,15-3,22,0c3.3,1.4,6.3,3.5,8.8,6c2.5,2.6,4.5,5.6,5.8,9c1.4,3.5,2.1,7.2,2.1,11c0.1,7.4-2.7,14.6-7.9,19.9
			c-2.5,2.6-5.5,4.6-8.8,6c-7,2.9-15,2.9-22,0c-3.3-1.4-6.3-3.4-8.8-6C142.5,141,139.7,133.8,139.8,126.4z M153.7,126.4
			c0,1.9,0.3,3.9,1,5.7c0.6,1.7,1.6,3.3,2.8,4.7c1.2,1.3,2.7,2.4,4.3,3.2c1.8,0.8,3.7,1.2,5.6,1.2c1.9,0,3.8-0.3,5.6-1.1
			c1.7-0.7,3.1-1.8,4.3-3.2c1.2-1.4,2.1-3,2.8-4.7c0.7-1.8,1-3.7,1-5.7c0-2-0.3-3.9-1-5.8c-0.6-1.7-1.6-3.3-2.8-4.7
			c-1.2-1.4-2.7-2.4-4.3-3.2c-1.8-0.8-3.7-1.2-5.6-1.2c-1.9,0-3.9,0.4-5.6,1.2c-1.6,0.8-3.1,1.9-4.3,3.2c-1.2,1.4-2.2,3-2.8,4.7
			C154,122.6,153.7,124.5,153.7,126.4L153.7,126.4z M48.1,106.7c-2.5-2.6-5.5-4.6-8.8-6c-3.5-1.5-7.2-2.3-11-2.2
			c-3.8,0-7.5,0.7-11,2.2c-1.3,0.6-2.6,1.3-3.9,2.1V80.1c1.2,0.8,2.5,1.4,3.9,2c3.5,1.5,7.2,2.2,11,2.2c3.8,0,7.5-0.7,11-2.2
			c3.3-1.4,6.3-3.4,8.8-6c2.5-2.6,4.4-5.6,5.8-8.9c1.4-3.5,2.2-7.2,2.1-11c0-3.8-0.7-7.5-2.1-11c-2.6-6.8-7.9-12.2-14.6-15
			c-3.5-1.5-7.2-2.2-11-2.2c-3.8,0-7.5,0.7-11,2.2c-1.3,0.6-2.6,1.3-3.9,2.1V0H0.1L0,74.2l0,0v80.4h13.4v-4c1.2,0.8,2.5,1.4,3.9,2
			c3.5,1.5,7.2,2.2,11,2.2c3.8,0,7.5-0.7,11-2.2c3.3-1.4,6.3-3.4,8.8-6c2.5-2.6,4.4-5.6,5.8-8.9c1.4-3.5,2.1-7.2,2.1-11
			c0-3.8-0.7-7.5-2.1-11C52.6,112.3,50.6,109.3,48.1,106.7z M15.6,50.5c0.6-1.7,1.6-3.3,2.8-4.7c1.2-1.3,2.6-2.4,4.3-3.2
			c1.8-0.8,3.7-1.2,5.6-1.2c1.9,0,3.8,0.4,5.6,1.2c1.7,0.7,3.1,1.8,4.3,3.2c1.2,1.4,2.2,3,2.8,4.7c0.7,1.8,1,3.8,1,5.8
			c0,1.9-0.3,3.9-1,5.7c-0.6,1.7-1.6,3.3-2.8,4.7c-1.2,1.4-2.7,2.4-4.3,3.2c-1.7,0.8-3.6,1.2-5.6,1.2c-1.9,0-3.9-0.4-5.6-1.2
			c-1.6-0.7-3.1-1.8-4.3-3.2c-1.2-1.4-2.2-3-2.8-4.7c-0.7-1.8-1-3.7-1-5.7C14.6,54.2,14.9,52.3,15.6,50.5z M41,132.4
			c-0.6,1.7-1.6,3.3-2.8,4.7c-1.2,1.4-2.7,2.4-4.3,3.2c-1.8,0.8-3.7,1.2-5.6,1.2c-1.9,0-3.9-0.4-5.6-1.2c-1.6-0.7-3.1-1.8-4.3-3.2
			c-1.2-1.4-2.2-3-2.8-4.7c-0.7-1.8-1-3.7-1-5.7c0-2,0.3-3.9,1-5.8c0.6-1.7,1.6-3.3,2.8-4.7c1.2-1.3,2.6-2.4,4.3-3.2
			c1.8-0.8,3.7-1.2,5.6-1.2c1.9,0,3.8,0.4,5.6,1.2c1.7,0.7,3.1,1.8,4.3,3.2c1.2,1.4,2.2,3,2.8,4.7c0.7,1.8,1,3.8,1,5.8
			C42,128.6,41.7,130.5,41,132.4z M256.8,106.5c-2.5-2.6-5.5-4.6-8.8-6c-7-2.9-15-2.9-22,0c-1.1,0.5-2.3,1.1-3.3,1.7v-22
			c1.1,0.6,2.2,1.2,3.3,1.7c7,3,15,3,22,0c3.3-1.4,6.3-3.5,8.8-6c2.5-2.6,4.5-5.6,5.8-9c1.4-3.5,2.1-7.2,2.1-11
			c0.1-7.4-2.8-14.6-7.9-19.9c-2.5-2.6-5.5-4.6-8.8-6c-7-2.9-15-2.9-22,0c-1.1,0.5-2.3,1.1-3.3,1.7v-4.1h-13.6l-0.1,80.7h0.1v73.6
			h13.6v-31.2c1.1,0.6,2.1,1.2,3.3,1.7c7,3,15,3,22,0c3.3-1.4,6.3-3.5,8.8-6c2.5-2.6,4.5-5.6,5.8-9c1.4-3.5,2.1-7.2,2.1-11
			C264.7,119,261.9,111.8,256.8,106.5L256.8,106.5z M224.3,50.2c0.6-1.7,1.6-3.3,2.8-4.7c1.2-1.3,2.7-2.4,4.3-3.2
			c1.8-0.8,3.7-1.2,5.6-1.2c1.9,0,3.8,0.4,5.6,1.2c1.7,0.7,3.1,1.8,4.3,3.2c1.2,1.4,2.1,3,2.8,4.7c0.7,1.8,1,3.7,1,5.7
			c0,2-0.3,3.9-1,5.8c-0.6,1.7-1.6,3.3-2.8,4.7c-1.2,1.4-2.7,2.4-4.3,3.2c-1.8,0.8-3.7,1.2-5.6,1.2c-1.9,0-3.9-0.4-5.6-1.2
			c-1.6-0.7-3.1-1.8-4.3-3.2c-1.2-1.4-2.2-3-2.8-4.7c-0.7-1.8-1-3.8-1-5.8C223.3,54,223.6,52,224.3,50.2z M249.7,132.1
			c-0.6,1.7-1.6,3.4-2.8,4.8c-1.2,1.4-2.7,2.4-4.3,3.2c-1.8,0.8-3.7,1.2-5.6,1.2c-3.8,0.1-7.4-1.5-9.9-4.4c-1.2-1.4-2.2-3-2.8-4.8
			c-0.7-1.8-1-3.8-1-5.7c0-1.9,0.3-3.9,1-5.7c0.6-1.7,1.6-3.3,2.8-4.7c1.2-1.3,2.7-2.4,4.3-3.2c1.8-0.8,3.7-1.2,5.6-1.2
			c1.9,0,3.8,0.4,5.6,1.2c1.7,0.7,3.1,1.8,4.3,3.2c1.2,1.4,2.1,3,2.8,4.7c0.7,1.8,1,3.7,1,5.7C250.7,128.3,250.4,130.3,249.7,132.1z
			"/>
	</g>
</g>
</svg>
